<svg xmlns="http://www.w3.org/2000/svg" xmlns:xlink="http://www.w3.org/1999/xlink" version="1.1" width="513.5pt" height="176pt" viewBox="0 0 513.5 176">
<defs>
<clipPath id="clip_0">
<path transform="matrix(1,0,0,-1,0,176)" d="M0 176H513.5V0H0Z"/>
</clipPath>
</defs>
<g id="layer_1" data-name="">
<g clip-path="url(#clip_0)">
<path transform="matrix(1,0,0,-1,236.4521,140.3164)" d="M0 0 .458 .463V1.841C.458 8.284-3.223 12.887-9.666 12.887-16.107 12.887-19.788 8.284-19.788 1.841V.922C-19.788-5.52-16.566-11.042-9.204-11.042-2.761-11.042-.462-6.9 0-4.139L-.462-3.68H-2.302L-2.761-4.139C-3.683-6.9-5.523-8.741-9.204-8.741-15.188-8.741-17.028-3.22-17.028-.459L-16.566 0ZM-2.761 2.303H-16.566L-17.028 2.763C-17.028 5.984-15.188 10.585-9.666 10.585-4.144 10.585-2.302 5.984-2.302 2.763ZM-23.01-10.122V11.968L-23.469 12.428H-25.311L-25.769 11.968V-10.122L-25.311-10.582H-23.469ZM-23.01 16.568V19.329L-23.469 19.788H-25.311L-25.769 19.329V16.568L-25.311 16.106H-23.469ZM-40.493-8.741C-45.096-8.741-47.859-5.52-47.859 .922-47.859 7.365-45.096 10.585-40.493 10.585-35.895 10.585-33.132 7.365-33.132 .922-33.132-5.52-35.895-8.741-40.493-8.741M-33.132-7.36C-33.132-13.343-34.514-17.945-40.037-17.945-44.178-17.945-45.559-16.104-46.018-13.804L-46.477-13.343H-48.317L-48.778-13.804C-48.317-17.485-45.559-20.245-40.037-20.245-34.053-20.245-30.373-16.563-30.373-7.36V11.968L-30.833 12.428H-32.214L-32.673 11.968-33.132 9.204H-33.594C-34.514 11.045-36.814 12.887-40.958 12.887-47.399 12.887-50.62 7.825-50.62 .922-50.62-5.979-47.399-11.042-40.958-11.042-36.814-11.042-34.514-9.203-33.594-7.36ZM-63.041 10.585C-58.441 10.585-55.221 6.903-55.221 .922-55.221-5.06-58.441-8.741-63.041-8.741-67.645-8.741-70.867-5.06-70.867 .922-70.867 6.903-67.645 10.585-63.041 10.585M-63.041-11.042C-57.061-11.042-52.459-6.9-52.459 .922-52.459 8.744-57.061 12.887-63.041 12.887-69.025 12.887-73.626 8.744-73.626 .922-73.626-6.9-69.025-11.042-63.041-11.042M-76.848-10.122V21.169L-77.309 21.629H-79.148L-79.61 21.169V-10.122L-79.148-10.582H-77.309ZM-93.413 10.585C-88.812 10.585-85.589 6.903-85.589 .922-85.589-5.06-88.812-8.741-93.413-8.741-98.016-8.741-101.236-5.06-101.236 .922-101.236 6.903-98.016 10.585-93.413 10.585M-93.413-11.042C-87.431-11.042-82.829-6.9-82.829 .922-82.829 8.744-87.431 12.887-93.413 12.887-99.394 12.887-103.997 8.744-103.997 .922-103.997-6.9-99.394-11.042-93.413-11.042M-106.757-10.122V3.684C-106.757 9.666-109.976 12.887-115.04 12.887-118.261 12.887-121.023 11.504-122.402 9.204H-122.864L-123.321 11.968-123.784 12.428H-125.166L-125.624 11.968V-10.122L-125.166-10.582H-123.321L-122.864-10.122V2.303C-122.864 7.365-120.562 10.585-115.501 10.585-111.82 10.585-109.519 8.284-109.519 3.684V-10.122L-109.058-10.582H-107.217ZM-130.227-10.122V3.684C-130.227 9.666-133.447 12.887-138.51 12.887-141.731 12.887-144.491 11.504-145.873 9.204H-146.332V21.169L-146.791 21.629H-148.632L-149.094 21.169V-10.122L-148.632-10.582H-146.791L-146.332-10.122V2.303C-146.332 7.365-144.029 10.585-138.969 10.585-135.287 10.585-132.986 8.284-132.986 3.684V-10.122L-132.527-10.582H-130.683ZM-169.799 .922C-169.799 7.365-166.58 10.585-161.977 10.585-157.377 10.585-155.536 7.825-155.076 5.064L-154.615 4.603H-152.773L-152.313 5.064C-152.773 9.666-156.456 12.887-161.977 12.887-167.959 12.887-172.56 9.204-172.56 .922-172.56-7.36-167.959-11.042-161.977-11.042-156.456-11.042-152.773-7.82-152.313-3.22L-152.773-2.76H-154.615L-155.076-3.22C-155.536-5.979-157.377-8.741-161.977-8.741-166.58-8.741-169.799-5.52-169.799 .922M-174.861 0H-191.428L-191.888-.459C-191.888-3.22-190.047-8.741-184.065-8.741-180.384-8.741-178.543-6.9-177.624-4.139L-177.162-3.68H-175.323L-174.861-4.139C-175.323-6.9-177.624-11.042-184.065-11.042-191.428-11.042-194.65-5.52-194.65 .922V1.841C-194.65 8.284-190.967 12.887-184.527 12.887-178.083 12.887-174.399 8.284-174.399 1.841V.463ZM-177.624 2.303H-191.428L-191.888 2.763C-191.888 5.984-190.047 10.585-184.527 10.585-179.002 10.585-177.162 5.984-177.162 2.763ZM19.762-5.17V-3.908C19.513-.251 17.219 1.435 12.881 2.303 8.28 3.222 5.521 3.684 5.521 6.903 5.521 9.204 7.36 10.585 10.583 10.585 14.723 10.585 16.104 8.744 16.104 6.443L16.564 5.984H18.404L18.867 6.443C18.867 11.045 15.183 12.887 10.583 12.887 5.521 12.887 2.76 10.125 2.76 6.903 2.76 3.222 5.521 1.382 10.121 .463 14.723-.459 17.024-.919 17.024-4.601 17.024-6.9 15.645-8.741 11.042-8.741 6.9-8.741 5.06-6.439 5.06-3.68L4.602-3.22H2.76L2.3-3.68C2.3-7.82 5.521-11.042 11.042-11.042 16.711-11.042 19.488-8.563 19.762-5.17M-190.023 19.788V21.169L-190.483 21.629H-214.412L-214.874 21.169V19.788L-214.412 19.329H-204.29L-203.83 18.868V-10.122L-203.368-10.582H-201.527L-201.067-10.122V18.868L-200.608 19.329H-190.483Z" fill="#7c7c7d" fill-rule="evenodd"/>
<path transform="matrix(1,0,0,-1,256.1572,83.1777)" d="M0 0V-13.714H-44.517V55.293H-28.843V0ZM-133.377 59.968H-133.395L-172.427 29.472C-176.277 44.325-189.772 55.293-205.83 55.293H-233.804V-13.714H-205.83C-189.772-13.714-176.277-2.747-172.427 12.107L-133.386-18.396-94.37 12.088V-13.714H-49.851V0H-78.695V55.293H-94.37V29.492L-131.795 .252-140.165 6.792-122.247 20.79-102.74 36.031-113.878 44.733-151.303 15.494-159.673 22.032-122.247 51.273ZM-218.129 0V41.58H-205.83C-195.43 41.58-186.999 32.271-186.999 20.79-186.999 9.308-195.43 0-205.83 0Z" fill="#0c71b9" fill-rule="evenodd"/>
<path transform="matrix(1,0,0,-1,490.3945,148.45999)" d="M0 0V.682H.426C.66 .682 .978 .664 .978 .37 .978 .056 .814 0 .539 0ZM0-.481H.284L.945-1.673H1.672L.939-.432C1.319-.405 1.63-.222 1.63 .303 1.63 .955 1.192 1.165 .454 1.165H-.613V-1.673H0ZM3.105-.259C3.105 1.408 1.845 2.376 .44 2.376-.973 2.376-2.231 1.408-2.231-.259-2.231-1.925-.973-2.898 .44-2.898 1.845-2.898 3.105-1.925 3.105-.259M2.335-.259C2.335-1.474 1.469-2.292 .44-2.292V-2.281C-.613-2.292-1.465-1.474-1.465-.259-1.465 .955-.613 1.768 .44 1.768 1.469 1.768 2.335 .955 2.335-.259" fill="#231f20"/>
<path transform="matrix(1,0,0,-1,395.7461,120.499)" d="M0 0 .004-29.925H8.22V0ZM-64.646 .041V-29.925H-56.356V-7.171L-49.933-7.174C-47.807-7.174-46.291-7.716-45.265-8.843-43.964-10.267-43.435-12.564-43.435-16.768V-29.925H-35.402V-13.369C-35.402-1.551-42.727 .041-49.89 .041ZM13.232 0V-29.925H26.561C33.664-29.925 35.981-28.711 38.488-25.987 40.259-24.076 41.403-19.878 41.403-15.294 41.403-11.088 40.436-7.334 38.744-4.996 35.7-.815 31.314 0 24.767 0ZM21.384-6.515H24.916C30.042-6.515 33.358-8.885 33.358-15.026 33.358-21.17 30.042-23.538 24.916-23.538H21.384ZM-11.848 0-18.707-23.718-25.279 0H-34.15L-24.766-29.925H-12.921L-3.46 0ZM45.228-29.925H53.448V0H45.226ZM68.267-.01 56.79-29.918H64.894L66.709-24.63H80.291L82.009-29.918H90.807L79.243-.01ZM73.601-5.467 78.579-19.479H68.466Z" fill="#231f20"/>
<path transform="matrix(1,0,0,-1,384.8818,50.397905)" d="M0 0V7.189C.679 7.239 1.364 7.276 2.063 7.3 21.182 7.92 33.725-9.598 33.725-9.598 33.725-9.598 20.177-28.947 5.652-28.947 3.561-28.947 1.688-28.599 0-28.019V-6.218C7.443-7.144 8.938-10.524 13.416-18.196L23.367-9.567C23.367-9.567 16.103 .234 3.857 .234 2.523 .234 1.25 .139 0 0M0 23.749V13.01C.686 13.068 1.373 13.112 2.063 13.139 28.651 14.06 45.973-9.29 45.973-9.29 45.973-9.29 26.076-34.172 5.349-34.172 3.449-34.172 1.671-33.992 0-33.687V-40.326C1.43-40.511 2.91-40.622 4.453-40.622 23.744-40.622 37.691-30.491 51.2-18.501 53.439-20.346 62.607-24.831 64.492-26.8 51.647-37.855 21.719-46.768 4.75-46.768 3.114-46.768 1.542-46.667 0-46.515V-55.843H73.314V23.749ZM0-28.019V-33.687C-17.841-30.416-22.793-11.343-22.793-11.343-22.793-11.343-14.228-1.583 0 0V-6.218L-.028-6.216C-7.492-5.294-13.327-12.466-13.327-12.466-13.327-12.466-10.059-24.543 0-28.019M-31.687-10.514C-31.687-10.514-21.114 5.531 0 7.189V13.01C-23.385 11.082-43.638-9.29-43.638-9.29-43.638-9.29-32.167-43.393 0-46.515V-40.326C-23.605-37.271-31.687-10.514-31.687-10.514" fill="#8bc64b"/>
</g>
</g>
</svg>
