<svg xmlns="http://www.w3.org/2000/svg" xmlns:xlink="http://www.w3.org/1999/xlink" viewBox="0,0,256,256" width="64px" height="64px"><g fill="none" fill-rule="nonzero" stroke="none" stroke-width="1" stroke-linecap="butt" stroke-linejoin="miter" stroke-miterlimit="10" stroke-dasharray="" stroke-dashoffset="0" font-family="none" font-weight="none" font-size="none" text-anchor="none" style="mix-blend-mode: normal"><g transform="scale(4,4)"><path d="M17.24,4.94h28.76c1.65685,0 3,1.34315 3,3v48c0,1.65685 -1.34315,3 -3,3h-38c-1.65685,0 -3,-1.34315 -3,-3v-38.76c0.0007,-0.79538 0.31723,-1.55793 0.88,-2.12l9.24,-9.24c0.56207,-0.56277 1.32462,-0.8793 2.12,-0.88z" fill="#faefde"></path><path d="M5,59l-0.15,-9.46l43.49,-43.48l0.66,22.94l-30,30zM4.85,39.15l34.21,-34.21l5.75,0.25l-39.81,39.81zM4.85,33.15l28.15,-28.15h3l-31.15,31.15z" fill="#fff7f0"></path><path d="M39.5,13l1.24,2.26l2.26,1.24l-2.26,1.24l-1.24,2.26l-1.24,-2.26l-2.26,-1.24l2.26,-1.24zM24.42,11l0.85,1.56l1.57,0.86l-1.57,0.85l-0.85,1.57l-0.86,-1.57l-1.56,-0.85l1.56,-0.86zM10.65,42l0.58,1.06l1.07,0.59l-1.07,0.58l-0.58,1.07l-0.59,-1.07l-1.06,-0.58l1.06,-0.59z" fill="#ffffff"></path><path d="M17,5v12h-12z" fill-opacity="0.63137" fill="#fa5252"></path><path d="M15,23h44v22h-44z" fill="#fa5252"></path><path d="M9,52c-0.55228,0 -1,0.44772 -1,1v2c0,0.55228 0.44772,1 1,1c0.55228,0 1,-0.44772 1,-1v-2c0,-0.55228 -0.44772,-1 -1,-1zM14,52c-0.55228,0 -1,0.44772 -1,1v2c0,0.55228 0.44772,1 1,1c0.55228,0 1,-0.44772 1,-1v-2c0,-0.55228 -0.44772,-1 -1,-1zM19,56c0.55228,0 1,-0.44772 1,-1v-2c0,-0.55228 -0.44772,-1 -1,-1c-0.55228,0 -1,0.44772 -1,1v2c0,0.55228 0.44772,1 1,1zM24,56c0.55228,0 1,-0.44772 1,-1v-2c0,-0.55228 -0.44772,-1 -1,-1c-0.55228,0 -1,0.44772 -1,1v2c0,0.55228 0.44772,1 1,1zM29,56c0.55228,0 1,-0.44772 1,-1v-2c0,-0.55228 -0.44772,-1 -1,-1c-0.55228,0 -1,0.44772 -1,1v2c0,0.55228 0.44772,1 1,1zM34,56c0.55228,0 1,-0.44772 1,-1v-2c0,-0.55228 -0.44772,-1 -1,-1c-0.55228,0 -1,0.44772 -1,1v2c0,0.55228 0.44772,1 1,1zM39,56c0.55228,0 1,-0.44772 1,-1v-2c0,-0.55228 -0.44772,-1 -1,-1c-0.55228,0 -1,0.44772 -1,1v2c0,0.55228 0.44772,1 1,1zM44,56c0.55228,0 1,-0.44772 1,-1v-2c0,-0.55228 -0.44772,-1 -1,-1c-0.55228,0 -1,0.44772 -1,1v2c0,0.55228 0.44772,1 1,1z" fill="#000000"></path><path d="M58,22h-8v-15c0,-1.65685 -1.34315,-3 -3,-3h-29.34c-1.32699,-0.00237 -2.60049,0.52286 -3.54,1.46l-8.66,8.66c-0.93714,0.93951 -1.46237,2.21301 -1.46,3.54v39.34c0,1.65685 1.34315,3 3,3h40c1.65685,0 3,-1.34315 3,-3v-11h8c1.10457,0 2,-0.89543 2,-2v-20c0,-1.10457 -0.89543,-2 -2,-2zM15.54,6.88c0.14032,-0.14164 0.29442,-0.26893 0.46,-0.38v8.5c0,0.55228 -0.44772,1 -1,1h-8.5c0.11107,-0.16558 0.23836,-0.31968 0.38,-0.46zM48,57c0,0.55228 -0.44772,1 -1,1h-40c-0.55228,0 -1,-0.44772 -1,-1v-39h9c1.65685,0 3,-1.34315 3,-3v-9h29c0.55228,0 1,0.44772 1,1v15h-32c-1.10457,0 -2,0.89543 -2,2v20c0,1.10457 0.89543,2 2,2h32zM58,44h-42v-20h42z" fill="#000000"></path><path d="M45,40c0.55228,0 1,-0.44772 1,-1v-3h3c0.55228,0 1,-0.44772 1,-1c0,-0.55228 -0.44772,-1 -1,-1h-3v-4h4c0.55228,0 1,-0.44772 1,-1c0,-0.55228 -0.44772,-1 -1,-1h-5c-0.55228,0 -1,0.44772 -1,1v10c0,0.55228 0.44772,1 1,1zM25,40c0.55228,0 1,-0.44772 1,-1v-3h3c1.65685,0 3,-1.34315 3,-3v-2c0,-1.65685 -1.34315,-3 -3,-3h-4c-0.55228,0 -1,0.44772 -1,1v10c0,0.55228 0.44772,1 1,1zM26,30h3c0.55228,0 1,0.44772 1,1v2c0,0.55228 -0.44772,1 -1,1h-3zM35,40h3c2.20914,0 4,-1.79086 4,-4v-4c0,-2.20914 -1.79086,-4 -4,-4h-3c-0.55228,0 -1,0.44772 -1,1v10c0,0.55228 0.44772,1 1,1zM36,30h2c1.10457,0 2,0.89543 2,2v4c0,1.10457 -0.89543,2 -2,2h-2z" fill="#ffffff"></path></g></g></svg>